JosefinSans-LightItalic.ufo
<glyph name="quotedbl" format="2">
  <advance width="312"/>
  <unicode hex="0022"/>
  <outline>
    <contour>
      <point x="197" y="724" type="curve"/>
      <point x="152" y="724" type="line"/>
      <point x="122" y="474" type="line"/>
      <point x="163" y="474" type="line"/>
      <point x="174" y="558"/>
      <point x="186" y="640"/>
    </contour>
    <contour>
      <point x="331" y="724" type="curve"/>
      <point x="286" y="724" type="line"/>
      <point x="255" y="474" type="line"/>
      <point x="297" y="474" type="line"/>
      <point x="308" y="558"/>
      <point x="320" y="640"/>
    </contour>
  </outline>
</glyph>
<glyph name="numbersign" format="2">
  <advance width="574"/>
  <unicode hex="0023"/>
  <outline>
    <contour>
      <point x="311" y="646" type="curve"/>
      <point x="267" y="646" type="line"/>
      <point x="250" y="576"/>
      <point x="233" y="507"/>
      <point x="215" y="436" type="curve"/>
      <point x="108" y="436" type="line"/>
      <point x="105" y="422"/>
      <point x="102" y="408"/>
      <point x="99" y="394" type="curve"/>
      <point x="205" y="394" type="line"/>
      <point x="193" y="347"/>
      <point x="183" y="300"/>
      <point x="171" y="253" type="curve"/>
      <point x="64" y="253" type="line"/>
      <point x="61" y="239"/>
      <point x="57" y="225"/>
      <point x="54" y="210" type="curve"/>
      <point x="161" y="210" type="line"/>
      <point x="144" y="140"/>
      <point x="127" y="70"/>
      <point x="110" y="0" type="curve"/>
      <point x="154" y="0" type="line"/>
      <point x="171" y="70"/>
      <point x="188" y="140"/>
      <point x="204" y="210" type="curve"/>
      <point x="346" y="210" type="line"/>
      <point x="329" y="140"/>
      <point x="312" y="70"/>
      <point x="295" y="0" type="curve"/>
      <point x="339" y="0" type="line"/>
      <point x="356" y="70"/>
      <point x="373" y="140"/>
      <point x="389" y="210" type="curve"/>
      <point x="512" y="210" type="line"/>
      <point x="515" y="225"/>
      <point x="518" y="239"/>
      <point x="522" y="253" type="curve"/>
      <point x="400" y="253" type="line"/>
      <point x="412" y="300"/>
      <point x="422" y="347"/>
      <point x="434" y="394" type="curve"/>
      <point x="557" y="394" type="line"/>
      <point x="560" y="408"/>
      <point x="563" y="422"/>
      <point x="566" y="436" type="curve"/>
      <point x="444" y="436" type="line"/>
      <point x="461" y="507"/>
      <point x="478" y="576"/>
      <point x="496" y="646" type="curve"/>
      <point x="452" y="646" type="line"/>
      <point x="435" y="576"/>
      <point x="417" y="507"/>
      <point x="400" y="436" type="curve"/>
      <point x="259" y="436" type="line"/>
      <point x="276" y="507"/>
      <point x="293" y="576"/>
    </contour>
    <contour>
      <point x="249" y="394" type="curve"/>
      <point x="390" y="394" type="line"/>
      <point x="378" y="347"/>
      <point x="368" y="300"/>
      <point x="356" y="253" type="curve"/>
      <point x="215" y="253" type="line"/>
      <point x="227" y="300"/>
      <point x="237" y="347"/>
    </contour>
  </outline>
</glyph>
<glyph name="quotesingle" format="2">
  <advance width="154"/>
  <unicode hex="0027"/>
  <outline>
    <contour>
      <point x="191" y="724" type="curve"/>
      <point x="145" y="724" type="line"/>
      <point x="115" y="474" type="line"/>
      <point x="157" y="474" type="line"/>
      <point x="168" y="558"/>
      <point x="180" y="640"/>
    </contour>
  </outline>
</glyph>
<glyph name="period" format="2">
  <advance width="164"/>
  <unicode hex="002E"/>
  <outline>
    <contour>
      <point x="56" y="30" type="curve" smooth="yes"/>
      <point x="56" y="30" type="line" smooth="yes"/>
      <point x="56" y="13"/>
      <point x="70" y="0"/>
      <point x="86" y="0" type="curve" smooth="yes"/>
      <point x="104" y="0"/>
      <point x="124" y="16"/>
      <point x="124" y="37" type="curve" smooth="yes"/>
      <point x="124" y="54"/>
      <point x="110" y="68"/>
      <point x="95" y="68" type="curve" smooth="yes"/>
      <point x="76" y="68"/>
      <point x="56" y="51"/>
    </contour>
  </outline>
</glyph>
<glyph name="four" format="2">
  <advance width="509"/>
  <unicode hex="0034"/>
  <outline>
    <contour>
      <point x="22" y="173" type="line"/>
      <point x="354" y="173" type="line"/>
      <point x="333" y="0" type="line"/>
      <point x="382" y="0" type="line"/>
      <point x="403" y="173" type="line"/>
      <point x="495" y="173" type="line"/>
      <point x="500" y="212" type="line"/>
      <point x="408" y="212" type="line"/>
      <point x="462" y="661" type="line"/>
      <point x="461" y="661" type="line"/>
      <point x="22" y="174" type="line"/>
    </contour>
    <contour>
      <point x="417" y="555" type="line"/>
      <point x="403" y="572" type="line"/>
      <point x="359" y="212" type="line"/>
      <point x="84" y="212" type="line"/>
      <point x="94" y="192" type="line"/>
    </contour>
  </outline>
</glyph>
<glyph name="colon" format="2">
  <advance width="176"/>
  <unicode hex="003A"/>
  <outline>
    <contour>
      <point x="55" y="30" type="curve" smooth="yes"/>
      <point x="55" y="30" type="line" smooth="yes"/>
      <point x="55" y="13"/>
      <point x="69" y="0"/>
      <point x="86" y="0" type="curve" smooth="yes"/>
      <point x="104" y="0"/>
      <point x="123" y="16"/>
      <point x="123" y="37" type="curve" smooth="yes"/>
      <point x="123" y="54"/>
      <point x="110" y="68"/>
      <point x="94" y="68" type="curve" smooth="yes"/>
      <point x="75" y="68"/>
      <point x="55" y="51"/>
    </contour>
    <contour>
      <point x="87" y="289" type="curve" smooth="yes"/>
      <point x="87" y="289" type="line" smooth="yes"/>
      <point x="87" y="272"/>
      <point x="102" y="259"/>
      <point x="118" y="259" type="curve" smooth="yes"/>
      <point x="136" y="259"/>
      <point x="155" y="275"/>
      <point x="155" y="296" type="curve" smooth="yes"/>
      <point x="155" y="314"/>
      <point x="142" y="327"/>
      <point x="126" y="327" type="curve" smooth="yes"/>
      <point x="107" y="327"/>
      <point x="87" y="310"/>
    </contour>
  </outline>
</glyph>
<glyph name="less" format="2">
  <advance width="647"/>
  <unicode hex="003C"/>
  <outline>
    <contour>
      <point x="521" y="-15" type="curve"/>
      <point x="528" y="43" type="line"/>
      <point x="528" y="43" type="line"/>
      <point x="423" y="108"/>
      <point x="316" y="174"/>
      <point x="210" y="239" type="curve"/>
      <point x="332" y="305"/>
      <point x="454" y="371"/>
      <point x="576" y="436" type="curve"/>
      <point x="583" y="493" type="line"/>
      <point x="426" y="409"/>
      <point x="269" y="324"/>
      <point x="112" y="239" type="curve"/>
      <point x="249" y="155"/>
      <point x="384" y="70"/>
    </contour>
  </outline>
</glyph>
<glyph name="A" format="2">
  <advance width="706"/>
  <unicode hex="0041"/>
  <anchor x="332" y="0" name="bottom"/>
  <anchor x="619" y="10" name="ogonek"/>
  <anchor x="421" y="731" name="top"/>
  <outline>
    <contour>
      <point x="75" y="0" type="line"/>
      <point x="430" y="676" type="line"/>
      <point x="393" y="657" type="line"/>
      <point x="575" y="0" type="line"/>
      <point x="630" y="0" type="line"/>
      <point x="421" y="741" type="line"/>
      <point x="417" y="741" type="line"/>
      <point x="26" y="0" type="line"/>
    </contour>
    <contour>
      <point x="206" y="281" type="line"/>
      <point x="188" y="235" type="line"/>
      <point x="529" y="235" type="line"/>
      <point x="521" y="281" type="line"/>
    </contour>
  </outline>
</glyph>
<glyph name="F" format="2">
  <advance width="578"/>
  <unicode hex="0046"/>
  <anchor x="265" y="0" name="bottom"/>
  <anchor x="351" y="700" name="top"/>
  <outline>
    <contour>
      <point x="176" y="710" type="line"/>
      <point x="89" y="0" type="line"/>
      <point x="139" y="0" type="line"/>
      <point x="178" y="324" type="line"/>
      <point x="486" y="324" type="line"/>
      <point x="492" y="371" type="line"/>
      <point x="184" y="371" type="line"/>
      <point x="220" y="663" type="line"/>
      <point x="567" y="663" type="line"/>
      <point x="573" y="710" type="line"/>
    </contour>
  </outline>
</glyph>
<glyph name="L" format="2">
  <advance width="578"/>
  <unicode hex="004C"/>
  <anchor x="302" y="0" name="bottom"/>
  <anchor x="491" y="355" name="center"/>
  <anchor x="195" y="715" name="top"/>
  <anchor x="619" y="710" name="topright"/>
  <outline>
    <contour>
      <point x="176" y="710" type="line"/>
      <point x="89" y="0" type="line"/>
      <point x="527" y="0" type="line"/>
      <point x="533" y="47" type="line"/>
      <point x="143" y="47" type="line"/>
      <point x="224" y="710" type="line"/>
    </contour>
  </outline>
</glyph>
<glyph name="Q" format="2">
  <advance width="939"/>
  <unicode hex="0051"/>
  <outline>
    <contour>
      <point x="608" y="38" type="line"/>
      <point x="521" y="0" type="line"/>
      <point x="855" y="0" type="line"/>
      <point x="861" y="48" type="line"/>
    </contour>
    <contour>
      <point x="473" y="-7" type="curve" smooth="yes"/>
      <point x="725" y="-7"/>
      <point x="859" y="206"/>
      <point x="859" y="381" type="curve" smooth="yes"/>
      <point x="859" y="587"/>
      <point x="703" y="717"/>
      <point x="518" y="717" type="curve" smooth="yes"/>
      <point x="266" y="717"/>
      <point x="132" y="504"/>
      <point x="132" y="328" type="curve" smooth="yes"/>
      <point x="132" y="123"/>
      <point x="288" y="-7"/>
    </contour>
    <contour>
      <point x="474" y="40" type="curve" smooth="yes"/>
      <point x="306" y="40"/>
      <point x="182" y="173"/>
      <point x="182" y="330" type="curve" smooth="yes"/>
      <point x="182" y="484"/>
      <point x="298" y="670"/>
      <point x="516" y="670" type="curve" smooth="yes"/>
      <point x="684" y="670"/>
      <point x="809" y="536"/>
      <point x="809" y="379" type="curve" smooth="yes"/>
      <point x="809" y="226"/>
      <point x="692" y="40"/>
    </contour>
  </outline>
</glyph>
<glyph name="R" format="2">
  <advance width="633"/>
  <unicode hex="0052"/>
  <anchor x="298" y="0" name="bottom"/>
  <anchor x="349" y="708" name="top"/>
  <outline>
    <contour>
      <point x="338" y="710" type="curve" smooth="yes"/>
      <point x="176" y="710" type="line"/>
      <point x="89" y="0" type="line"/>
      <point x="137" y="0" type="line"/>
      <point x="174" y="298" type="line"/>
      <point x="283" y="298" type="line" smooth="yes"/>
      <point x="451" y="298"/>
      <point x="523" y="403"/>
      <point x="536" y="509" type="curve" smooth="yes"/>
      <point x="553" y="650"/>
      <point x="443" y="710"/>
    </contour>
    <contour>
      <point x="287" y="345" type="curve" smooth="yes"/>
      <point x="180" y="345" type="line"/>
      <point x="218" y="663" type="line"/>
      <point x="338" y="663" type="line" smooth="yes"/>
      <point x="440" y="663"/>
      <point x="496" y="591"/>
      <point x="486" y="507" type="curve" smooth="yes"/>
      <point x="477" y="434"/>
      <point x="429" y="345"/>
    </contour>
    <contour>
      <point x="385" y="323" type="line"/>
      <point x="328" y="322" type="line"/>
      <point x="486" y="0" type="line"/>
      <point x="543" y="0" type="line"/>
    </contour>
  </outline>
</glyph>
<glyph name="grave" format="2">
  <advance width="201"/>
  <unicode hex="0060"/>
  <outline>
    <contour>
      <point x="106" y="615" type="line"/>
      <point x="53" y="615" type="line"/>
      <point x="142" y="482" type="line"/>
      <point x="176" y="482" type="line"/>
    </contour>
  </outline>
</glyph>
<glyph name="h" format="2">
  <advance width="512"/>
  <unicode hex="0068"/>
  <anchor x="236" y="0" name="bottom"/>
  <anchor x="160" y="586" name="center"/>
  <anchor x="174" y="647" name="top"/>
  <outline>
    <contour>
      <point x="145" y="305" type="curve"/>
      <point x="147" y="289" type="line"/>
      <point x="205" y="760" type="line"/>
      <point x="158" y="760" type="line"/>
      <point x="65" y="0" type="line"/>
      <point x="112" y="0" type="line"/>
      <point x="138" y="209" type="line" smooth="yes"/>
      <point x="149" y="297"/>
      <point x="225" y="360"/>
      <point x="309" y="360" type="curve"/>
      <point x="363" y="358"/>
      <point x="389" y="322"/>
      <point x="385" y="276" type="curve"/>
      <point x="352" y="0" type="line"/>
      <point x="399" y="0" type="line"/>
      <point x="434" y="285" type="line"/>
      <point x="440" y="354"/>
      <point x="398" y="402"/>
      <point x="324" y="402" type="curve" smooth="yes"/>
      <point x="246" y="402"/>
      <point x="179" y="361"/>
    </contour>
  </outline>
</glyph>
<glyph name="l" format="2">
  <advance width="226"/>
  <unicode hex="006C"/>
  <anchor x="90" y="0" name="bottom"/>
  <anchor x="114" y="220" name="center"/>
  <anchor x="174" y="757" name="top"/>
  <anchor x="277" y="746" name="topright"/>
  <outline>
    <contour>
      <point x="158" y="760" type="line"/>
      <point x="65" y="0" type="line"/>
      <point x="112" y="0" type="line"/>
      <point x="206" y="760" type="line"/>
    </contour>
  </outline>
</glyph>
<glyph name="p" format="2">
  <advance width="558"/>
  <unicode hex="0070"/>
  <anchor x="250" y="0" name="bottom"/>
  <anchor x="298" y="391" name="top"/>
  <outline>
    <contour>
      <point x="275" y="-8" type="curve" smooth="yes"/>
      <point x="406" y="-8"/>
      <point x="509" y="98"/>
      <point x="509" y="225" type="curve" smooth="yes"/>
      <point x="509" y="328"/>
      <point x="432" y="403"/>
      <point x="329" y="403" type="curve" smooth="yes"/>
      <point x="253" y="403"/>
      <point x="175" y="358"/>
      <point x="132" y="295" type="curve"/>
      <point x="143" y="266" type="line"/>
      <point x="155" y="394" type="line"/>
      <point x="113" y="394" type="line"/>
      <point x="42" y="-188" type="line"/>
      <point x="89" y="-188" type="line"/>
      <point x="122" y="111" type="line"/>
      <point x="109" y="99" type="line"/>
      <point x="130" y="37"/>
      <point x="197" y="-8"/>
    </contour>
    <contour>
      <point x="275" y="33" type="curve" smooth="yes"/>
      <point x="163" y="33"/>
      <point x="130" y="127"/>
      <point x="131" y="175" type="curve"/>
      <point x="137" y="218" type="line"/>
      <point x="154" y="303"/>
      <point x="229" y="364"/>
      <point x="315" y="364" type="curve" smooth="yes"/>
      <point x="398" y="364"/>
      <point x="461" y="302"/>
      <point x="461" y="218" type="curve" smooth="yes"/>
      <point x="461" y="119"/>
      <point x="377" y="33"/>
    </contour>
  </outline>
</glyph>
<glyph name="q" format="2">
  <advance width="559"/>
  <unicode hex="0071"/>
  <anchor x="234" y="0" name="bottom"/>
  <anchor x="282" y="391" name="top"/>
  <outline>
    <contour>
      <point x="229" y="-7" type="curve" smooth="yes"/>
      <point x="324" y="-8"/>
      <point x="399" y="50"/>
      <point x="428" y="103" type="curve"/>
      <point x="412" y="116" type="line"/>
      <point x="376" y="-188" type="line"/>
      <point x="423" y="-188" type="line"/>
      <point x="494" y="391" type="line"/>
      <point x="449" y="391" type="line"/>
      <point x="432" y="271" type="line"/>
      <point x="444" y="292" type="line"/>
      <point x="422" y="354"/>
      <point x="361" y="403"/>
      <point x="275" y="403" type="curve" smooth="yes"/>
      <point x="151" y="403"/>
      <point x="49" y="296"/>
      <point x="49" y="174" type="curve" smooth="yes"/>
      <point x="49" y="67"/>
      <point x="131" y="-8"/>
    </contour>
    <contour>
      <point x="241" y="32" type="curve" smooth="yes"/>
      <point x="158" y="32"/>
      <point x="95" y="94"/>
      <point x="95" y="176" type="curve" smooth="yes"/>
      <point x="95" y="277"/>
      <point x="179" y="363"/>
      <point x="281" y="363" type="curve" smooth="yes"/>
      <point x="394" y="363"/>
      <point x="427" y="271"/>
      <point x="426" y="218" type="curve"/>
      <point x="420" y="176" type="line"/>
      <point x="400" y="94"/>
      <point x="324" y="32"/>
    </contour>
  </outline>
</glyph>
<glyph name="r" format="2">
  <advance width="343"/>
  <unicode hex="0072"/>
  <anchor x="106" y="0" name="bottom"/>
  <anchor x="184" y="408" name="top"/>
  <outline>
    <contour>
      <point x="154" y="391" type="line"/>
      <point x="113" y="391" type="line"/>
      <point x="65" y="0" type="line"/>
      <point x="112" y="0" type="line"/>
      <point x="138" y="207" type="line" smooth="yes"/>
      <point x="147" y="291"/>
      <point x="227" y="356"/>
      <point x="317" y="356" type="curve"/>
      <point x="324" y="402" type="line"/>
      <point x="256" y="401"/>
      <point x="178" y="360"/>
      <point x="143" y="287" type="curve"/>
    </contour>
  </outline>
</glyph>
<glyph name="w" format="2">
  <advance width="666"/>
  <unicode hex="0077"/>
  <anchor x="303" y="0" name="bottom"/>
  <anchor x="351" y="391" name="top"/>
  <outline>
    <contour>
      <point x="425" y="-20" type="line"/>
      <point x="429" y="-20" type="line"/>
      <point x="660" y="391" type="line"/>
      <point x="612" y="391" type="line"/>
      <point x="427" y="62" type="line"/>
      <point x="438" y="63" type="line"/>
      <point x="332" y="391" type="line"/>
      <point x="289" y="391" type="line"/>
      <point x="319" y="302" type="line"/>
      <point x="189" y="62" type="line"/>
      <point x="206" y="57" type="line"/>
      <point x="98" y="391" type="line"/>
      <point x="51" y="391" type="line"/>
      <point x="183" y="-19" type="line"/>
      <point x="187" y="-19" type="line"/>
      <point x="334" y="257" type="line"/>
    </contour>
  </outline>
</glyph>
<glyph name="bar" format="2">
  <advance width="269"/>
  <unicode hex="007C"/>
  <outline>
    <contour>
      <point x="181" y="704" type="line"/>
      <point x="66" y="-233" type="line"/>
      <point x="110" y="-233" type="line"/>
      <point x="225" y="704" type="line"/>
    </contour>
  </outline>
</glyph>
<glyph name="cent" format="2">
  <advance width="436"/>
  <unicode hex="00A2"/>
  <anchor x="191" y="0" name="bottom"/>
  <anchor x="244" y="395" name="top"/>
  <outline>
    <contour>
      <point x="270" y="456" type="line"/>
      <point x="206" y="-68" type="line"/>
      <point x="239" y="-68" type="line"/>
      <point x="303" y="456" type="line"/>
    </contour>
    <component base="c"/>
  </outline>
</glyph>
<glyph name="twosuperior" format="2">
  <advance width="399"/>
  <unicode hex="00B2"/>
  <outline>
    <contour>
      <point x="147" y="648" type="curve"/>
      <point x="160" y="619" type="line"/>
      <point x="177" y="640"/>
      <point x="203" y="657"/>
      <point x="238" y="657" type="curve" smooth="yes"/>
      <point x="279" y="657"/>
      <point x="308" y="636"/>
      <point x="301" y="579" type="curve" smooth="yes"/>
      <point x="293" y="511"/>
      <point x="196" y="434"/>
      <point x="111" y="368" type="curve"/>
      <point x="108" y="346" type="line"/>
      <point x="336" y="346" type="line"/>
      <point x="341" y="386" type="line"/>
      <point x="153" y="386" type="line"/>
      <point x="147" y="354" type="line"/>
      <point x="225" y="421"/>
      <point x="340" y="500"/>
      <point x="351" y="589" type="curve" smooth="yes"/>
      <point x="360" y="660"/>
      <point x="321" y="697"/>
      <point x="253" y="698" type="curve" smooth="yes"/>
      <point x="211" y="698"/>
      <point x="169" y="676"/>
    </contour>
  </outline>
</glyph>
<glyph name="acute" format="2">
  <advance width="243"/>
  <unicode hex="00B4"/>
  <outline>
    <contour>
      <point x="295" y="615" type="line"/>
      <point x="243" y="615" type="line"/>
      <point x="144" y="482" type="line"/>
      <point x="178" y="482" type="line"/>
    </contour>
  </outline>
</glyph>
<glyph name="ordmasculine" format="2">
  <advance width="381"/>
  <unicode hex="00BA"/>
  <outline>
    <contour>
      <point x="86" y="570" type="curve"/>
      <point x="75" y="483"/>
      <point x="133" y="418"/>
      <point x="217" y="413" type="curve"/>
      <point x="303" y="408"/>
      <point x="374" y="468"/>
      <point x="385" y="551" type="curve"/>
      <point x="395" y="634"/>
      <point x="338" y="704"/>
      <point x="253" y="709" type="curve"/>
      <point x="168" y="715"/>
      <point x="96" y="653"/>
    </contour>
    <contour>
      <point x="124" y="567" type="curve"/>
      <point x="132" y="627"/>
      <point x="185" y="679"/>
      <point x="249" y="675" type="curve"/>
      <point x="311" y="671"/>
      <point x="354" y="617"/>
      <point x="346" y="553" type="curve"/>
      <point x="338" y="491"/>
      <point x="282" y="443"/>
      <point x="221" y="447" type="curve"/>
      <point x="159" y="451"/>
      <point x="117" y="504"/>
    </contour>
  </outline>
</glyph>
<glyph name="guillemetright" format="2">
  <advance width="604"/>
  <unicode hex="00BB"/>
  <outline>
    <contour>
      <point x="432" y="240" type="curve"/>
      <point x="282" y="67" type="line"/>
      <point x="276" y="116" type="line"/>
      <point x="306" y="152"/>
      <point x="346" y="204"/>
      <point x="376" y="240" type="curve"/>
      <point x="337" y="276"/>
      <point x="284" y="327"/>
      <point x="245" y="363" type="curve"/>
      <point x="239" y="413" type="line"/>
      <point x="286" y="373"/>
      <point x="385" y="280"/>
    </contour>
    <contour>
      <point x="260" y="240" type="curve"/>
      <point x="110" y="67" type="line"/>
      <point x="104" y="116" type="line"/>
      <point x="134" y="152"/>
      <point x="174" y="204"/>
      <point x="204" y="240" type="curve"/>
      <point x="165" y="276"/>
      <point x="112" y="328"/>
      <point x="73" y="363" type="curve"/>
      <point x="67" y="413" type="line"/>
      <point x="114" y="373"/>
      <point x="213" y="280"/>
    </contour>
  </outline>
</glyph>
<glyph name="onequarter" format="2">
  <advance width="807"/>
  <unicode hex="00BC"/>
  <outline>
    <contour>
      <point x="618" y="758.241" type="curve"/>
      <point x="575" y="758.241" type="line"/>
      <point x="450" y="505.49399999999997"/>
      <point x="326" y="252.74699999999999"/>
      <point x="201" y="0.0" type="curve"/>
      <point x="245" y="0.0" type="line"/>
      <point x="370" y="252.74699999999999"/>
      <point x="493" y="505.49399999999997"/>
    </contour>
    <component base="onesuperior"/>
    <component base="foursuperior" xOffset="422" yOffset="-326"/>
  </outline>
</glyph>
<glyph name="Thorn" format="2">
  <advance width="550"/>
  <unicode hex="00DE"/>
  <outline>
    <contour>
      <point x="320" y="556" type="curve" smooth="yes"/>
      <point x="208" y="556" type="line"/>
      <point x="226" y="704" type="line"/>
      <point x="176" y="704" type="line"/>
      <point x="89" y="0" type="line"/>
      <point x="139" y="0" type="line"/>
      <point x="157" y="145" type="line"/>
      <point x="266" y="145" type="line" smooth="yes"/>
      <point x="442" y="145"/>
      <point x="519" y="268"/>
      <point x="519" y="379" type="curve" smooth="yes"/>
      <point x="519" y="503"/>
      <point x="417" y="556"/>
    </contour>
    <contour>
      <point x="272" y="192" type="curve" smooth="yes"/>
      <point x="163" y="192" type="line"/>
      <point x="202" y="509" type="line"/>
      <point x="312" y="509" type="line" smooth="yes"/>
      <point x="410" y="509"/>
      <point x="468" y="449"/>
      <point x="468" y="373" type="curve" smooth="yes"/>
      <point x="468" y="309"/>
      <point x="423" y="192"/>
    </contour>
  </outline>
</glyph>
<glyph name="eth" format="2">
  <advance width="520"/>
  <unicode hex="00F0"/>
  <outline>
    <contour>
      <point x="238" y="-6" type="curve" smooth="yes"/>
      <point x="388" y="-9"/>
      <point x="468" y="110"/>
      <point x="474" y="243" type="curve" smooth="yes"/>
      <point x="479" y="418"/>
      <point x="374" y="629"/>
      <point x="238" y="746" type="curve"/>
      <point x="202" y="717" type="line"/>
      <point x="326" y="607"/>
      <point x="431" y="413"/>
      <point x="424" y="243" type="curve"/>
      <point x="439" y="271" type="line"/>
      <point x="415" y="356"/>
      <point x="337" y="401"/>
      <point x="269" y="403" type="curve" smooth="yes"/>
      <point x="131" y="407"/>
      <point x="55" y="311"/>
      <point x="51" y="199" type="curve" smooth="yes"/>
      <point x="46" y="55"/>
      <point x="147" y="-4"/>
    </contour>
    <contour>
      <point x="245" y="33" type="curve" smooth="yes"/>
      <point x="175" y="35"/>
      <point x="96" y="85"/>
      <point x="98" y="198" type="curve" smooth="yes"/>
      <point x="101" y="281"/>
      <point x="157" y="366"/>
      <point x="273" y="362" type="curve" smooth="yes"/>
      <point x="315" y="361"/>
      <point x="424" y="327"/>
      <point x="421" y="204" type="curve" smooth="yes"/>
      <point x="419" y="145"/>
      <point x="373" y="31"/>
    </contour>
    <contour>
      <point x="418" y="674" type="line"/>
      <point x="407" y="706" type="line"/>
      <point x="195" y="593" type="line"/>
      <point x="209" y="561" type="line"/>
    </contour>
  </outline>
</glyph>
<glyph name="dcroat" format="2">
  <advance width="529"/>
  <unicode hex="0111"/>
  <anchor x="253" y="0" name="bottom"/>
  <anchor x="447" y="497" name="center"/>
  <anchor x="287" y="408" name="top"/>
  <anchor x="586" y="667" name="topright"/>
  <outline>
    <contour>
      <point x="304" y="649" type="line"/>
      <point x="300" y="612" type="line"/>
      <point x="588" y="612" type="line"/>
      <point x="593" y="649" type="line"/>
    </contour>
    <component base="d"/>
  </outline>
</glyph>
<glyph name="eogonek" format="2">
  <advance width="476"/>
  <unicode hex="0119"/>
  <outline>
    <contour>
      <point x="298" y="-191" type="curve"/>
      <point x="335" y="-191"/>
      <point x="371" y="-166"/>
      <point x="390" y="-134" type="curve"/>
      <point x="371" y="-110" type="line"/>
      <point x="354" y="-136"/>
      <point x="332" y="-155"/>
      <point x="305" y="-155" type="curve"/>
      <point x="279" y="-154"/>
      <point x="254" y="-133"/>
      <point x="255" y="-98" type="curve"/>
      <point x="255" y="-58"/>
      <point x="284" y="-23"/>
      <point x="335" y="11" type="curve" smooth="yes"/>
      <point x="349" y="19"/>
      <point x="363" y="27"/>
      <point x="379" y="34" type="curve"/>
      <point x="359" y="70" type="line"/>
      <point x="329" y="47"/>
      <point x="292" y="33"/>
      <point x="253" y="33" type="curve" smooth="yes"/>
      <point x="162" y="33"/>
      <point x="97" y="101"/>
      <point x="97" y="191" type="curve" smooth="yes"/>
      <point x="97" y="285"/>
      <point x="171" y="363"/>
      <point x="269" y="363" type="curve" smooth="yes"/>
      <point x="336" y="363"/>
      <point x="383" y="316"/>
      <point x="402" y="257" type="curve"/>
      <point x="419" y="267" type="line"/>
      <point x="88" y="165" type="line"/>
      <point x="96" y="133" type="line"/>
      <point x="453" y="244" type="line"/>
      <point x="431" y="349"/>
      <point x="363" y="402"/>
      <point x="269" y="402" type="curve" smooth="yes"/>
      <point x="139" y="402"/>
      <point x="50" y="297"/>
      <point x="50" y="186" type="curve" smooth="yes"/>
      <point x="50" y="72"/>
      <point x="131" y="-7"/>
      <point x="248" y="-7" type="curve" smooth="yes"/>
      <point x="276" y="-5"/>
      <point x="305" y="4"/>
      <point x="330" y="17" type="curve"/>
      <point x="322" y="38" type="line"/>
      <point x="259" y="6"/>
      <point x="213" y="-47"/>
      <point x="213" y="-103" type="curve"/>
      <point x="213" y="-155"/>
      <point x="252" y="-189"/>
    </contour>
  </outline>
</glyph>
<glyph name="Iogonek" format="2">
  <advance width="274"/>
  <unicode hex="012E"/>
  <outline>
    <contour>
      <point x="82" y="-197" type="curve"/>
      <point x="119" y="-198"/>
      <point x="155" y="-172"/>
      <point x="174" y="-140" type="curve"/>
      <point x="155" y="-116" type="line"/>
      <point x="138" y="-143"/>
      <point x="116" y="-161"/>
      <point x="90" y="-161" type="curve"/>
      <point x="63" y="-160"/>
      <point x="38" y="-140"/>
      <point x="39" y="-104" type="curve"/>
      <point x="40" y="-65"/>
      <point x="78" y="-31"/>
      <point x="139" y="0" type="curve"/>
      <point x="226" y="710" type="line"/>
      <point x="176" y="710" type="line"/>
      <point x="89" y="0" type="line"/>
      <point x="97" y="17" type="line"/>
      <point x="38" y="-10"/>
      <point x="-3" y="-62"/>
      <point x="-3" y="-110" type="curve"/>
      <point x="-3" y="-161"/>
      <point x="36" y="-195"/>
    </contour>
  </outline>
</glyph>
<glyph name="idotless" format="2">
  <advance width="225"/>
  <unicode hex="0131"/>
  <anchor x="84" y="0" name="bottom"/>
  <anchor x="98" y="10" name="ogonek"/>
  <anchor x="138" y="391" name="top"/>
  <outline>
    <contour>
      <point x="113" y="391" type="line"/>
      <point x="65" y="0" type="line"/>
      <point x="112" y="0" type="line"/>
      <point x="160" y="391" type="line"/>
    </contour>
  </outline>
</glyph>
<glyph name="lslash" format="2">
  <advance width="212"/>
  <unicode hex="0142"/>
  <anchor x="93" y="0" name="bottom"/>
  <anchor x="117" y="220" name="center"/>
  <anchor x="177" y="757" name="top"/>
  <anchor x="280" y="746" name="topright"/>
  <outline>
    <contour>
      <point x="245" y="366" type="line"/>
      <point x="52" y="307" type="line"/>
      <point x="46" y="265" type="line"/>
      <point x="240" y="324" type="line"/>
    </contour>
    <component base="l" xOffset="3"/>
  </outline>
</glyph>
<glyph name="florin" format="2">
  <advance width="303"/>
  <unicode hex="0192"/>
  <outline>
    <contour>
      <point x="149" y="518" type="curve" smooth="yes"/>
      <point x="134" y="391" type="line"/>
      <point x="66" y="392" type="line"/>
      <point x="61" y="346" type="line"/>
      <point x="128" y="345" type="line"/>
      <point x="94" y="72" type="line" smooth="yes"/>
      <point x="80" y="-46"/>
      <point x="4" y="-120"/>
      <point x="-92" y="-120" type="curve"/>
      <point x="-98" y="-167" type="line"/>
      <point x="29" y="-166"/>
      <point x="124" y="-87"/>
      <point x="143" y="71" type="curve" smooth="yes"/>
      <point x="177" y="343" type="line"/>
      <point x="307" y="341" type="line"/>
      <point x="313" y="386" type="line"/>
      <point x="182" y="388" type="line"/>
      <point x="198" y="518" type="line" smooth="yes"/>
      <point x="212" y="636"/>
      <point x="289" y="709"/>
      <point x="385" y="710" type="curve"/>
      <point x="390" y="757" type="line"/>
      <point x="271" y="755"/>
      <point x="169" y="676"/>
    </contour>
  </outline>
</glyph>
<glyph name="schwa" format="2">
  <advance width="488"/>
  <unicode hex="0259"/>
  <anchor x="265" y="396" name="bottom"/>
  <anchor x="116" y="374" name="ogonek"/>
  <anchor x="221" y="-12" name="top"/>
  <outline>
    <contour>
      <point x="236" y="358" type="curve" smooth="yes"/>
      <point x="326" y="358"/>
      <point x="391" y="290"/>
      <point x="391" y="200" type="curve" smooth="yes"/>
      <point x="391" y="106"/>
      <point x="317" y="28"/>
      <point x="220" y="28" type="curve" smooth="yes"/>
      <point x="152" y="28"/>
      <point x="105" y="75"/>
      <point x="87" y="134" type="curve"/>
      <point x="69" y="120" type="line"/>
      <point x="400" y="222" type="line"/>
      <point x="392" y="258" type="line"/>
      <point x="35" y="147" type="line"/>
      <point x="57" y="42"/>
      <point x="125" y="-11"/>
      <point x="219" y="-11" type="curve" smooth="yes"/>
      <point x="349" y="-11"/>
      <point x="438" y="94"/>
      <point x="438" y="205" type="curve" smooth="yes"/>
      <point x="438" y="319"/>
      <point x="357" y="398"/>
      <point x="240" y="398" type="curve" smooth="yes"/>
      <point x="194" y="398"/>
      <point x="147" y="383"/>
      <point x="109" y="357" type="curve"/>
      <point x="129" y="321" type="line"/>
      <point x="159" y="344"/>
      <point x="197" y="358"/>
    </contour>
  </outline>
</glyph>
<glyph name="nhookleft" format="2">
  <advance width="497"/>
  <unicode hex="0272"/>
  <outline>
    <contour>
      <point x="1" y="-188" type="line"/>
      <point x="49" y="-149"/>
      <point x="87" y="-89"/>
      <point x="97" y="-5" type="curve" smooth="yes"/>
      <point x="104" y="52" type="line"/>
      <point x="57" y="52" type="line"/>
      <point x="50" y="-6" type="line" smooth="yes"/>
      <point x="42" y="-72"/>
      <point x="14" y="-124"/>
      <point x="-26" y="-159" type="curve"/>
    </contour>
    <contour>
      <point x="139" y="391" type="line"/>
      <point x="98" y="391" type="line"/>
      <point x="50" y="0" type="line"/>
      <point x="97" y="0" type="line"/>
      <point x="123" y="210" type="line" smooth="yes"/>
      <point x="134" y="300"/>
      <point x="210" y="361"/>
      <point x="289" y="361" type="curve"/>
      <point x="348" y="359"/>
      <point x="373" y="322"/>
      <point x="369" y="272" type="curve"/>
      <point x="336" y="0" type="line"/>
      <point x="384" y="0" type="line"/>
      <point x="419" y="285" type="line"/>
      <point x="425" y="354"/>
      <point x="382" y="402"/>
      <point x="309" y="402" type="curve" smooth="yes"/>
      <point x="232" y="402"/>
      <point x="157" y="360"/>
      <point x="126" y="292" type="curve"/>
      <point x="129" y="268" type="line"/>
    </contour>
  </outline>
</glyph>
<glyph name="tildecomb" format="2">
  <unicode hex="0303"/>
  <anchor x="344" y="391" name="_top"/>
  <anchor x="369" y="557" name="top"/>
  <outline>
    <contour>
      <point x="431" y="446" type="curve"/>
      <point x="478" y="443"/>
      <point x="520" y="484"/>
      <point x="528" y="568" type="curve"/>
      <point x="496" y="571" type="line"/>
      <point x="486" y="504"/>
      <point x="462" y="481"/>
      <point x="434" y="483" type="curve"/>
      <point x="408" y="484"/>
      <point x="392" y="505"/>
      <point x="376" y="526" type="curve"/>
      <point x="358" y="551"/>
      <point x="339" y="577"/>
      <point x="300" y="579" type="curve"/>
      <point x="251" y="582"/>
      <point x="206" y="538"/>
      <point x="196" y="457" type="curve"/>
      <point x="228" y="453" type="line"/>
      <point x="239" y="520"/>
      <point x="269" y="542"/>
      <point x="294" y="541" type="curve"/>
      <point x="320" y="539"/>
      <point x="334" y="519"/>
      <point x="349" y="499" type="curve"/>
      <point x="369" y="474"/>
      <point x="389" y="448"/>
    </contour>
  </outline>
</glyph>
<glyph name="breveinvertedcomb" format="2">
  <unicode hex="0311"/>
  <anchor x="339" y="456" name="_top"/>
  <anchor x="373" y="687" name="top"/>
  <outline>
    <contour>
      <point x="368" y="665" type="curve" smooth="yes"/>
      <point x="291" y="667"/>
      <point x="236" y="600"/>
      <point x="220" y="498" type="curve"/>
      <point x="255" y="498" type="line"/>
      <point x="268" y="571"/>
      <point x="306" y="631"/>
      <point x="365" y="630" type="curve" smooth="yes"/>
      <point x="394" y="629"/>
      <point x="460" y="604"/>
      <point x="453" y="498" type="curve"/>
      <point x="487" y="498" type="line"/>
      <point x="496" y="633"/>
      <point x="411" y="664"/>
    </contour>
  </outline>
</glyph>
<glyph name="quoteleft" format="2">
  <advance width="165"/>
  <unicode hex="2018"/>
  <outline>
    <contour>
      <point x="175" y="593" type="curve"/>
      <point x="175" y="593" type="line"/>
      <point x="151" y="620"/>
      <point x="142" y="661"/>
      <point x="156" y="708" type="curve"/>
      <point x="146" y="710"/>
      <point x="135" y="713"/>
      <point x="124" y="715" type="curve"/>
      <point x="107" y="661"/>
      <point x="118" y="609"/>
      <point x="152" y="573" type="curve"/>
      <point x="160" y="579"/>
      <point x="168" y="586"/>
    </contour>
  </outline>
</glyph>
<glyph name="quotesinglbase" format="2">
  <advance width="147"/>
  <unicode hex="201A"/>
  <outline>
    <contour>
      <point x="34" y="-50" type="curve"/>
      <point x="34" y="-50" type="line"/>
      <point x="77" y="-14"/>
      <point x="101" y="38"/>
      <point x="97" y="93" type="curve"/>
      <point x="86" y="91"/>
      <point x="74" y="88"/>
      <point x="63" y="86" type="curve"/>
      <point x="66" y="39"/>
      <point x="47" y="-2"/>
      <point x="16" y="-29" type="curve"/>
      <point x="22" y="-36"/>
      <point x="28" y="-43"/>
    </contour>
  </outline>
</glyph>
<glyph name="quotedblright" format="2">
  <advance width="249"/>
  <unicode hex="201D"/>
  <outline>
    <contour>
      <point x="121" y="573" type="curve"/>
      <point x="121" y="573" type="line"/>
      <point x="165" y="609"/>
      <point x="189" y="661"/>
      <point x="184" y="715" type="curve"/>
      <point x="173" y="713"/>
      <point x="161" y="710"/>
      <point x="150" y="708" type="curve"/>
      <point x="154" y="661"/>
      <point x="135" y="620"/>
      <point x="103" y="593" type="curve"/>
      <point x="110" y="586"/>
      <point x="115" y="579"/>
    </contour>
    <contour>
      <point x="226" y="573" type="curve"/>
      <point x="226" y="573" type="line"/>
      <point x="269" y="609"/>
      <point x="293" y="661"/>
      <point x="289" y="715" type="curve"/>
      <point x="278" y="713"/>
      <point x="266" y="710"/>
      <point x="255" y="708" type="curve"/>
      <point x="258" y="661"/>
      <point x="239" y="620"/>
      <point x="207" y="593" type="curve"/>
      <point x="214" y="586"/>
      <point x="220" y="579"/>
    </contour>
  </outline>
</glyph>
<glyph name="dagger" format="2">
  <advance width="300"/>
  <unicode hex="2020"/>
  <outline>
    <contour>
      <point x="103" y="450" type="line"/>
      <point x="97" y="407" type="line"/>
      <point x="302" y="407" type="line"/>
      <point x="308" y="450" type="line"/>
    </contour>
    <contour>
      <point x="200" y="588" type="line"/>
      <point x="134" y="46" type="line"/>
      <point x="177" y="46" type="line"/>
      <point x="244" y="588" type="line"/>
    </contour>
  </outline>
</glyph>
<glyph name="bullet" format="2">
  <advance width="481"/>
  <unicode hex="2022"/>
  <outline>
    <contour>
      <point x="185" y="292" type="curve" smooth="yes"/>
      <point x="185" y="292" type="line" smooth="yes"/>
      <point x="185" y="246"/>
      <point x="220" y="210"/>
      <point x="266" y="210" type="curve" smooth="yes"/>
      <point x="322" y="210"/>
      <point x="370" y="255"/>
      <point x="370" y="311" type="curve" smooth="yes"/>
      <point x="370" y="357"/>
      <point x="336" y="394"/>
      <point x="289" y="394" type="curve" smooth="yes"/>
      <point x="234" y="394"/>
      <point x="185" y="348"/>
    </contour>
  </outline>
</glyph>
<glyph name="colonsign" format="2">
  <advance width="698"/>
  <unicode hex="20A1"/>
  <anchor x="426" y="-3" name="bottom"/>
  <anchor x="459" y="707" name="top"/>
  <outline>
    <contour>
      <point x="567" y="743" type="line"/>
      <point x="522" y="743" type="line"/>
      <point x="133" y="-49" type="line"/>
      <point x="178" y="-49" type="line"/>
    </contour>
    <contour>
      <point x="703" y="743" type="line"/>
      <point x="657" y="743" type="line"/>
      <point x="269" y="-49" type="line"/>
      <point x="314" y="-49" type="line"/>
    </contour>
    <component base="C"/>
  </outline>
</glyph>
<glyph name="naira" format="2">
  <advance width="830"/>
  <unicode hex="20A6"/>
  <anchor x="410" y="0" name="bottom"/>
  <anchor x="489" y="700" name="top"/>
  <outline>
    <contour>
      <point x="460" y="369" type="line"/>
      <point x="457" y="334" type="line"/>
      <point x="824" y="334" type="line"/>
      <point x="827" y="369" type="line"/>
    </contour>
    <contour>
      <point x="444" y="334" type="line"/>
      <point x="447" y="369" type="line"/>
      <point x="36" y="369" type="line"/>
      <point x="33" y="334" type="line"/>
    </contour>
    <contour>
      <point x="701" y="-17" type="line"/>
      <point x="790" y="710" type="line"/>
      <point x="741" y="710" type="line"/>
      <point x="665" y="85" type="line"/>
      <point x="681" y="80" type="line"/>
      <point x="199" y="725" type="line"/>
      <point x="196" y="725" type="line"/>
      <point x="108" y="0" type="line"/>
      <point x="157" y="0" type="line"/>
      <point x="232" y="624" type="line"/>
      <point x="218" y="623" type="line"/>
      <point x="699" y="-17" type="line"/>
    </contour>
  </outline>
</glyph>
<glyph name="Ohm" format="2">
  <advance width="833"/>
  <unicode hex="2126"/>
  <outline>
    <contour>
      <point x="497" y="42" type="curve"/>
      <point x="494" y="16" type="line"/>
      <point x="615" y="56"/>
      <point x="731" y="133"/>
      <point x="742" y="321" type="curve" smooth="yes"/>
      <point x="751" y="458"/>
      <point x="686" y="596"/>
      <point x="508" y="596" type="curve" smooth="yes"/>
      <point x="307" y="597"/>
      <point x="197" y="429"/>
      <point x="197" y="263" type="curve" smooth="yes"/>
      <point x="197" y="116"/>
      <point x="288" y="53"/>
      <point x="384" y="17" type="curve"/>
      <point x="387" y="42" type="line"/>
      <point x="304" y="79"/>
      <point x="226" y="158"/>
      <point x="244" y="297" type="curve" smooth="yes"/>
      <point x="264" y="452"/>
      <point x="362" y="555"/>
      <point x="504" y="554" type="curve" smooth="yes"/>
      <point x="637" y="553"/>
      <point x="715" y="461"/>
      <point x="696" y="301" type="curve" smooth="yes"/>
      <point x="682" y="164"/>
      <point x="594" y="79"/>
    </contour>
    <contour>
      <point x="167" y="42" type="line"/>
      <point x="162" y="0" type="line"/>
      <point x="382" y="0" type="line"/>
      <point x="387" y="42" type="line"/>
    </contour>
    <contour>
      <point x="497" y="42" type="line"/>
      <point x="492" y="0" type="line"/>
      <point x="701" y="0" type="line"/>
      <point x="707" y="42" type="line"/>
    </contour>
  </outline>
</glyph>
<glyph name="product" format="2">
  <advance width="609"/>
  <unicode hex="220F"/>
  <outline>
    <contour>
      <point x="295" y="754" type="line"/>
      <point x="195" y="-61" type="line"/>
      <point x="238" y="-61" type="line"/>
      <point x="333" y="712" type="line"/>
      <point x="470" y="712" type="line"/>
      <point x="375" y="-61" type="line"/>
      <point x="418" y="-61" type="line"/>
      <point x="518" y="754" type="line"/>
    </contour>
  </outline>
</glyph>
<glyph name="radical" format="2">
  <advance width="536"/>
  <unicode hex="221A"/>
  <outline>
    <contour>
      <point x="535" y="605" type="line"/>
      <point x="250" y="119" type="line"/>
      <point x="166" y="366" type="line"/>
      <point x="59" y="366" type="line"/>
      <point x="54" y="337" type="line"/>
      <point x="141" y="337" type="line"/>
      <point x="240" y="37" type="line"/>
      <point x="569" y="605" type="line"/>
    </contour>
  </outline>
</glyph>
<glyph name="infinity" format="2">
  <advance width="442"/>
  <unicode hex="221E"/>
  <outline>
    <contour>
      <point x="265" y="303" type="curve"/>
      <point x="265" y="303" type="line"/>
      <point x="271" y="346"/>
      <point x="224" y="377"/>
      <point x="172" y="377" type="curve" smooth="yes"/>
      <point x="111" y="377"/>
      <point x="76" y="333"/>
      <point x="76" y="297" type="curve" smooth="yes"/>
      <point x="76" y="264"/>
      <point x="101" y="229"/>
      <point x="155" y="229" type="curve" smooth="yes"/>
      <point x="206" y="229"/>
      <point x="260" y="259"/>
    </contour>
    <contour>
      <point x="235" y="297" type="curve" smooth="yes"/>
      <point x="235" y="297" type="line" smooth="yes"/>
      <point x="235" y="257"/>
      <point x="280" y="229"/>
      <point x="328" y="229" type="curve" smooth="yes"/>
      <point x="391" y="229"/>
      <point x="422" y="274"/>
      <point x="422" y="310" type="curve" smooth="yes"/>
      <point x="422" y="342"/>
      <point x="400" y="377"/>
      <point x="346" y="377" type="curve" smooth="yes"/>
      <point x="293" y="377"/>
      <point x="235" y="344"/>
    </contour>
    <contour>
      <point x="235" y="302" type="curve"/>
      <point x="235" y="302" type="line"/>
      <point x="233" y="277"/>
      <point x="193" y="258"/>
      <point x="158" y="258" type="curve" smooth="yes"/>
      <point x="122" y="258"/>
      <point x="108" y="280"/>
      <point x="108" y="299" type="curve" smooth="yes"/>
      <point x="108" y="321"/>
      <point x="129" y="347"/>
      <point x="169" y="347" type="curve" smooth="yes"/>
      <point x="204" y="347"/>
      <point x="239" y="328"/>
    </contour>
    <contour>
      <point x="265" y="302" type="curve"/>
      <point x="265" y="302" type="line"/>
      <point x="269" y="328"/>
      <point x="308" y="347"/>
      <point x="342" y="347" type="curve" smooth="yes"/>
      <point x="378" y="347"/>
      <point x="393" y="326"/>
      <point x="393" y="306" type="curve" smooth="yes"/>
      <point x="393" y="286"/>
      <point x="374" y="258"/>
      <point x="331" y="258" type="curve" smooth="yes"/>
      <point x="298" y="258"/>
      <point x="262" y="277"/>
    </contour>
  </outline>
</glyph>
<glyph name="notequal" format="2">
  <advance width="712"/>
  <unicode hex="2260"/>
  <outline>
    <contour>
      <point x="626" y="506" type="curve"/>
      <point x="605" y="529" type="line"/>
      <point x="453" y="371"/>
      <point x="261" y="173"/>
      <point x="110" y="16" type="curve"/>
      <point x="132" y="-6" type="line"/>
      <point x="283" y="151"/>
      <point x="475" y="349"/>
    </contour>
    <component base="equal"/>
  </outline>
</glyph>
